# File exported by Houdini 19.5.569 (www.sidefx.com)
# 46 points
# 252 vertices
# 84 primitives
# Bounds: [-1.56856823, 1.70193863, 1.47363627] to [-1.44426835, 3.35574675, 2.15270662]
g 
v -1.56055725 2.49298143 2.04672122
v -1.56505823 2.49261904 1.52337682
v -1.56172466 2.99009061 1.53212631
v -1.55794013 2.92464995 2.04200602
v -1.55898201 3.18727112 1.73943126
v -1.55903339 3.18685269 1.83046508
v -1.55761838 3.14151263 1.93608582
v -1.56010664 3.14156795 1.63418353
v -1.5613842 2.18095565 2.14445019
v -1.56362367 2.8602612 1.48001313
v -1.56068099 3.34693861 1.49100864
v -1.55536592 3.33640838 2.14496279
v -1.56856823 1.70941353 1.48549962
v -1.56321692 1.7156055 2.14402103
v -1.54695261 3.34698558 1.49175584
v -1.54173315 3.33634496 2.14486337
v -1.54978573 1.71534634 2.14413404
v -1.55479038 1.70929456 1.48565733
v -1.55010498 2.84020138 1.47884238
v -1.44763219 2.49308848 2.04529858
v -1.44468462 2.92470598 2.04174376
v -1.44434512 3.12648749 1.95271015
v -1.44485414 3.18033838 1.85295284
v -1.44488478 3.18833637 1.7869544
v -1.44596958 3.18033838 1.71724236
v -1.44707966 3.12629962 1.61723948
v -1.44887519 2.92466021 1.52841747
v -1.45116043 2.49328423 1.52489984
v -1.44570863 2.71901011 2.04547834
v -1.44999504 2.7190032 1.52471852
v -1.54159343 3.3461709 2.15270662
v -1.5548557 1.70193863 1.47888148
v -1.54953146 1.70643723 2.15197039
v -1.54696321 3.35574675 1.48493719
v -1.54882979 3.06284356 1.47516632
v -1.55177259 2.53624272 1.47363627
v -1.44426835 3.06729603 2.0042851
v -1.55743337 3.02300572 2.02935243
v -1.44767344 3.07293248 1.56928349
v -1.56092882 3.07305074 1.56899261
v -1.44449306 3.15352893 1.9150672
v -1.44664085 3.15326571 1.65468025
v -1.4443531 3.0131228 2.03106785
v -1.55673838 3.09131956 1.98597455
v -1.55813205 3.07359076 2.00506306
v -1.44826591 3.0131228 1.53900087
vt 0.261431932 0.933018684 0
vt 0.262761652 0.926906228 0
vt 0.26394254 0.933061242 0
vt 0.748364806 0.509439707 0
vt 0.743330717 0.51555109 0
vt 0.744702339 0.509391606 0
vt 0.618934572 0.602222204 0
vt 0.612823308 0.597167969 0
vt 0.618952572 0.598529041 0
vt 0.128440633 0.395019531 0
vt 0.127226755 0.401178777 0
vt 0.125941604 0.395066589 0
vt 0.983533561 0.440083802 0
vt 0.984998524 0.442123115 0
vt 0.986884296 0.449063599 0
vt 0.98645103 0.445488155 0
vt 0.98645097 0.452840656 0
vt 0.9849841 0.456230074 0
vt 0.98352319 0.45825851 0
vt 0.94922924 0.463262111 0
vt 0.94921875 0.435069054 0
vt 0.961458385 0.435058594 0
vt 0.96145767 0.463271588 0
vt 0.0351108462 0.209486395 0
vt 0.0068359375 0.203125 0
vt 0.0351878926 0.203368723 0
vt 0.738403618 0.515426576 0
vt 0.741104066 0.509303689 0
vt 0.737304688 0.509277344 0
vt 0.405991167 0.537597656 0
vt 0.31764245 0.538033724 0
vt 0.31716001 0.537608743 0
vt 0.774854839 0.801837742 0
vt 0.800064206 0.801838398 0
vt 0.800075531 0.802567542 0
vt 0.362095952 0.574374676 0
vt 0.316894531 0.574073493 0
vt 0.317293227 0.573706567 0
vt 0.801143527 0.766165376 0
vt 0.800396979 0.766143799 0
vt 0.757950604 0.796555102 0
vt 0.712259531 0.80191046 0
vt 0.720359325 0.784853876 0
vt 0.72281462 0.790581703 0
vt 0.72280848 0.774214089 0
vt 0.720335484 0.779917121 0
vt 0.711680889 0.766442418 0
vt 0.757970512 0.76821816 0
vt 0.7109375 0.766501069 0
vt 0.406496257 0.573776722 0
vt 0.406021714 0.573407114 0
vt 0.405458689 0.538022399 0
vt 0.711520255 0.801923156 0
vt 0.739134669 0.765136719 0
vt 0.800403595 0.76539737 0
vt 0.738053918 0.765880466 0
vt 0.731018007 0.768699408 0
vt 0.770873785 0.724920928 0
vt 0.758645535 0.724986434 0
vt 0.770908535 0.71875 0
vt 0.743954062 0.718933344 0
vt 0.972599208 0.463070869 0
vt 0.972602069 0.435260624 0
vt 0.806102276 0.0321520865 0
vt 0.793852746 0.0259395018 0
vt 0.806091726 0.0260341037 0
vt 0.782707691 0.0258941036 0
vt 0.734564662 0.796316743 0
vt 0.378564239 0.574097931 0
vt 0.390626758 0.574301004 0
vt 0.977392018 0.435838878 0
vt 0.980326891 0.437289774 0
vt 0.258927554 0.9268803 0
vt 0.257179469 0.932942271 0
vt 0.25390625 0.93287468 0
vt 0.254545182 0.926757813 0
vt 0.777883053 0.0258789063 0
vt 0.782715917 0.032029517 0
vt 0.77734375 0.0320051759 0
vt 0.72650075 0.794312358 0
vt 0.729237139 0.795635104 0
vt 0.725564063 0.793254018 0
vt 0.712260008 0.802648962 0
vt 0.980631948 0.460856616 0
vt 0.97739172 0.462497324 0
vt 0.122104429 0.401269257 0
vt 0.118424647 0.395196468 0
vt 0.12205562 0.395134658 0
vt 0.747502387 0.725048125 0
vt 0.742675781 0.72508496 0
vt 0.726520598 0.770688891 0
vt 0.711657465 0.765697479 0
vt 0.1171875 0.401355654 0
vt 0.800792158 0.801857114 0
vt 0.0069184876 0.209295467 0
vt 0.612792969 0.603384316 0
vt 0.749554038 0.515589178 0
vn -0.688745975 -0.535936415 -0.488263398
vn -0.749042034 -0.548498929 -0.371597797
vn -0.681838274 -0.642838359 -0.349078208
vn -0.681838274 -0.642838359 -0.349078208
vn -0.764363945 -0.635457993 -0.109274261
vn -0.663355827 -0.72342819 -0.19133912
vn -0.669911146 -0.711294234 0.21278967
vn -0.750762105 -0.534373462 0.388331473
vn -0.67869997 -0.6404531 0.35942468
vn -0.67869997 -0.6404531 0.35942468
vn -0.750762105 -0.534373462 0.388331473
vn -0.679451704 -0.53541702 0.501671374
vn -0.688745975 -0.535936415 -0.488263398
vn -0.681838274 -0.642838359 -0.349078208
vn -0.675853312 -0.736793697 -0.0189011041
vn -0.681838274 -0.642838359 -0.349078208
vn -0.663355827 -0.72342819 -0.19133912
vn -0.675853312 -0.736793697 -0.0189011041
vn -0.669911146 -0.711294234 0.21278967
vn -0.67869997 -0.6404531 0.35942468
vn -0.675853312 -0.736793697 -0.0189011041
vn -0.67869997 -0.6404531 0.35942468
vn -0.679451704 -0.53541702 0.501671374
vn -0.675853312 -0.736793697 -0.0189011041
vn -0.578363299 0.578246534 0.575436234
vn -0.58098346 0.57926321 -0.571762443
vn -0.675853312 -0.736793697 -0.0189011041
vn -0.675853312 -0.736793697 -0.0189011041
vn -0.58098346 0.57926321 -0.571762443
vn -0.702429831 -0.00541358721 -0.711732388
vn -0.695034325 -0.00702948077 0.718942285
vn -0.578363299 0.578246534 0.575436234
vn -0.675853312 -0.736793697 -0.0189011041
vn -0.58098346 0.57926321 -0.571762443
vn -0.905276895 0.298249722 0.302524358
vn -0.906734586 0.303865314 -0.292400867
vn -0.754139662 -0.645444274 0.121140741
vn -0.663355827 -0.72342819 -0.19133912
vn -0.764363945 -0.635457993 -0.109274261
vn -0.675853312 -0.736793697 -0.0189011041
vn -0.754139662 -0.645444274 0.121140741
vn -0.669911146 -0.711294234 0.21278967
vn -0.999931872 0.00653680321 0.00967476703
vn -0.898594439 -0.301829278 0.31847629
vn -0.999719679 -0.00943049509 0.0217173956
vn -0.70156616 0.00281660794 0.712598801
vn -0.583814144 -0.568366051 0.579759479
vn -0.898594439 -0.301829278 0.31847629
vn -0.998336315 0.00448824465 0.0574853085
vn -0.999974728 0.00257254695 0.00663469639
vn -0.906363428 -0.305051029 -0.292316914
vn -0.906363428 -0.305051029 -0.292316914
vn -0.583814144 -0.568366051 0.579759479
vn -0.580243886 -0.577073574 -0.574720204
vn -0.898594439 -0.301829278 0.31847629
vn -0.906363428 -0.305051029 -0.292316914
vn -0.999974728 0.00257254695 0.00663469639
vn -0.898594439 -0.301829278 0.31847629
vn -0.999974728 0.00257254695 0.00663469639
vn -0.999719679 -0.00943049509 0.0217173956
vn -0.580243886 -0.577073574 -0.574720204
vn -0.583814144 -0.568366051 0.579759479
vn -0.70156616 0.00281660794 0.712598801
vn -0.906734586 0.303865314 -0.292400867
vn -0.70156616 0.00281660794 0.712598801
vn -0.570897222 0.574787498 0.586255789
vn -0.764363945 -0.635457993 -0.109274261
vn -0.749042034 -0.548498929 -0.371597797
vn -0.570897222 0.574787498 0.586255789
vn -0.750762105 -0.534373462 0.388331473
vn -0.754139662 -0.645444274 0.121140741
vn -0.565835655 0.585630357 -0.580402493
vn -0.905276895 0.298249722 0.302524358
vn -0.70156616 0.00281660794 0.712598801
vn -0.906734586 0.303865314 -0.292400867
vn -0.754139662 -0.645444274 0.121140741
vn -0.764363945 -0.635457993 -0.109274261
vn -0.565835655 0.585630357 -0.580402493
vn -0.565835655 0.585630357 -0.580402493
vn -0.570897222 0.574787498 0.586255789
vn -0.898554146 0.329961419 -0.289353997
vn -0.999931872 0.00653680321 0.00967476703
vn -0.999947429 0.00552213751 0.00865118951
vn -0.898554146 0.329961419 -0.289353997
vn -0.898554146 0.329961419 -0.289353997
vn -0.897975266 0.306893378 0.315367997
vn -0.999931872 0.00653680321 0.00967476703
vn -0.897975266 0.306893378 0.315367997
vn -0.898554146 0.329961419 -0.289353997
vn -0.570897222 0.574787498 0.586255789
vn -0.764363945 -0.635457993 -0.109274261
vn -0.570897222 0.574787498 0.586255789
vn -0.565835655 0.585630357 -0.580402493
vn -0.737083375 0.00439320086 -0.675787508
vn -0.906363428 -0.305051029 -0.292316914
vn -0.580243886 -0.577073574 -0.574720204
vn -0.580243886 -0.577073574 -0.574720204
vn -0.732106328 0.016573187 -0.680988669
vn -0.737083375 0.00439320086 -0.675787508
vn -0.580243886 -0.577073574 -0.574720204
vn -0.905276895 0.298249722 0.302524358
vn -0.732106328 0.016573187 -0.680988669
vn -0.905276895 0.298249722 0.302524358
vn -0.580243886 -0.577073574 -0.574720204
vn -0.70156616 0.00281660794 0.712598801
vn -0.905276895 0.298249722 0.302524358
vn -0.743672252 -0.134984851 0.654775321
vn -0.732106328 0.016573187 -0.680988669
vn -0.578363299 0.578246534 0.575436234
vn -0.695034325 -0.00702948077 0.718942285
vn -0.905276895 0.298249722 0.302524358
vn -0.695034325 -0.00702948077 0.718942285
vn -0.743672252 -0.134984851 0.654775321
vn -0.905276895 0.298249722 0.302524358
vn -0.675853312 -0.736793697 -0.0189011041
vn -0.691331029 -0.0333480425 0.72176826
vn -0.695034325 -0.00702948077 0.718942285
vn -0.702429831 -0.00541358721 -0.711732388
vn -0.698141575 -0.0442783833 -0.714589238
vn -0.675853312 -0.736793697 -0.0189011041
vn -0.906734586 0.303865314 -0.292400867
vn -0.702429831 -0.00541358721 -0.711732388
vn -0.58098346 0.57926321 -0.571762443
vn -0.906734586 0.303865314 -0.292400867
vn -0.698141575 -0.0442783833 -0.714589238
vn -0.702429831 -0.00541358721 -0.711732388
vn -0.570897222 0.574787498 0.586255789
vn -0.721056461 -0.0425064526 -0.691571236
vn -0.906734586 0.303865314 -0.292400867
vn -0.998336315 0.00448824465 0.0574853085
vn -0.906363428 -0.305051029 -0.292316914
vn -0.737083375 0.00439320086 -0.675787508
vn -0.998336315 0.00448824465 0.0574853085
vn -0.737083375 0.00439320086 -0.675787508
vn -0.999915302 0.00591995008 0.0115984334
vn -0.675853312 -0.736793697 -0.0189011041
vn -0.677664578 -0.203141227 -0.706756175
vn -0.685730994 -0.404542744 -0.605077088
vn -0.675853312 -0.736793697 -0.0189011041
vn -0.698141575 -0.0442783833 -0.714589238
vn -0.677664578 -0.203141227 -0.706756175
vn -0.685730994 -0.404542744 -0.605077088
vn -0.688745975 -0.535936415 -0.488263398
vn -0.675853312 -0.736793697 -0.0189011041
vn -0.298239887 -0.634634078 -0.712946415
vn -0.688745975 -0.535936415 -0.488263398
vn -0.685730994 -0.404542744 -0.605077088
vn -0.685730994 -0.404542744 -0.605077088
vn -0.677664578 -0.203141227 -0.706756175
vn -0.758463383 -0.217958793 -0.614188313
vn -0.677664578 -0.203141227 -0.706756175
vn -0.721056461 -0.0425064526 -0.691571236
vn -0.758463383 -0.217958793 -0.614188313
vn -0.758463383 -0.217958793 -0.614188313
vn -0.298239887 -0.634634078 -0.712946415
vn -0.685730994 -0.404542744 -0.605077088
vn -0.298239887 -0.634634078 -0.712946415
vn -0.749042034 -0.548498929 -0.371597797
vn -0.688745975 -0.535936415 -0.488263398
vn -0.99704212 -0.0426733419 -0.063921541
vn -0.758463383 -0.217958793 -0.614188313
vn -0.570897222 0.574787498 0.586255789
vn -0.758463383 -0.217958793 -0.614188313
vn -0.721056461 -0.0425064526 -0.691571236
vn -0.570897222 0.574787498 0.586255789
vn -0.99704212 -0.0426733419 -0.063921541
vn -0.298239887 -0.634634078 -0.712946415
vn -0.758463383 -0.217958793 -0.614188313
vn -0.99704212 -0.0426733419 -0.063921541
vn -0.749042034 -0.548498929 -0.371597797
vn -0.298239887 -0.634634078 -0.712946415
vn -0.570897222 0.574787498 0.586255789
vn -0.749042034 -0.548498929 -0.371597797
vn -0.99704212 -0.0426733419 -0.063921541
vn -0.570897222 0.574787498 0.586255789
vn -0.898594439 -0.301829278 0.31847629
vn -0.897975266 0.306893378 0.315367997
vn -0.897975266 0.306893378 0.315367997
vn -0.898594439 -0.301829278 0.31847629
vn -0.999931872 0.00653680321 0.00967476703
vn -0.675189316 -0.415820688 0.609272182
vn -0.670735419 -0.218146518 0.708890617
vn -0.675853312 -0.736793697 -0.0189011041
vn -0.670735419 -0.218146518 0.708890617
vn -0.691331029 -0.0333480425 0.72176826
vn -0.675853312 -0.736793697 -0.0189011041
vn -0.675853312 -0.736793697 -0.0189011041
vn -0.679451704 -0.53541702 0.501671374
vn -0.675189316 -0.415820688 0.609272182
vn -0.742384374 -0.370725214 0.558057487
vn -0.670735419 -0.218146518 0.708890617
vn -0.675189316 -0.415820688 0.609272182
vn -0.743672252 -0.134984851 0.654775321
vn -0.691331029 -0.0333480425 0.72176826
vn -0.670735419 -0.218146518 0.708890617
vn -0.675189316 -0.415820688 0.609272182
vn -0.750762105 -0.534373462 0.388331473
vn -0.742384374 -0.370725214 0.558057487
vn -0.565835655 0.585630357 -0.580402493
vn -0.743672252 -0.134984851 0.654775321
vn -0.742384374 -0.370725214 0.558057487
vn -0.565835655 0.585630357 -0.580402493
vn -0.732106328 0.016573187 -0.680988669
vn -0.743672252 -0.134984851 0.654775321
vn -0.742384374 -0.370725214 0.558057487
vn -0.750762105 -0.534373462 0.388331473
vn -0.565835655 0.585630357 -0.580402493
vn -0.737083375 0.00439320086 -0.675787508
vn -0.565835655 0.585630357 -0.580402493
vn -0.898554146 0.329961419 -0.289353997
vn -0.737083375 0.00439320086 -0.675787508
vn -0.732106328 0.016573187 -0.680988669
vn -0.565835655 0.585630357 -0.580402493
vn -0.999915302 0.00591995008 0.0115984334
vn -0.898554146 0.329961419 -0.289353997
vn -0.999947429 0.00552213751 0.00865118951
vn -0.898554146 0.329961419 -0.289353997
vn -0.999915302 0.00591995008 0.0115984334
vn -0.737083375 0.00439320086 -0.675787508
vn -0.750762105 -0.534373462 0.388331473
vn -0.675189316 -0.415820688 0.609272182
vn -0.679451704 -0.53541702 0.501671374
vn -0.670735419 -0.218146518 0.708890617
vn -0.742384374 -0.370725214 0.558057487
vn -0.743672252 -0.134984851 0.654775321
vn -0.898594439 -0.301829278 0.31847629
vn -0.570897222 0.574787498 0.586255789
vn -0.70156616 0.00281660794 0.712598801
vn -0.721056461 -0.0425064526 -0.691571236
vn -0.677664578 -0.203141227 -0.706756175
vn -0.698141575 -0.0442783833 -0.714589238
vn -0.698141575 -0.0442783833 -0.714589238
vn -0.906734586 0.303865314 -0.292400867
vn -0.721056461 -0.0425064526 -0.691571236
vn -0.743672252 -0.134984851 0.654775321
vn -0.695034325 -0.00702948077 0.718942285
vn -0.691331029 -0.0333480425 0.72176826
vn -0.583814144 -0.568366051 0.579759479
vn -0.906363428 -0.305051029 -0.292316914
vn -0.898594439 -0.301829278 0.31847629
vn -0.663355827 -0.72342819 -0.19133912
vn -0.754139662 -0.645444274 0.121140741
vn -0.675853312 -0.736793697 -0.0189011041
vn -0.905276895 0.298249722 0.302524358
vn -0.58098346 0.57926321 -0.571762443
vn -0.578363299 0.578246534 0.575436234
vn -0.750762105 -0.534373462 0.388331473
vn -0.669911146 -0.711294234 0.21278967
vn -0.754139662 -0.645444274 0.121140741
vn -0.764363945 -0.635457993 -0.109274261
vn -0.681838274 -0.642838359 -0.349078208
vn -0.749042034 -0.548498929 -0.371597797
g 
f 22/1/1 7/2/2 41/3/3
f 41/4/4 6/5/5 23/6/6
f 25/7/7 8/8/8 42/9/9
f 42/10/10 8/11/11 26/12/12
f 22/13/13 41/14/14 24/15/15
f 41/14/16 23/16/17 24/15/18
f 25/17/19 42/18/20 24/15/21
f 42/18/22 26/19/23 24/15/24
f 28/20/25 20/21/26 24/15/27
f 24/15/28 20/21/29 29/22/30
f 30/23/31 28/20/32 24/15/33
f 20/24/34 2/25/35 1/26/36
f 5/27/37 23/6/38 6/5/39
f 24/28/40 5/27/41 25/29/42
f 31/30/43 17/31/44 33/32/45
f 9/33/46 14/34/47 17/35/48
f 36/36/49 32/37/50 18/38/51
f 18/39/52 14/34/53 13/40/54
f 17/31/55 18/38/56 32/37/57
f 17/31/58 32/37/59 33/32/60
f 13/40/61 14/34/62 9/33/63
f 1/41/64 9/33/65 12/42/66
f 6/43/67 7/44/68 12/42/69
f 8/45/70 5/46/71 11/47/72
f 2/48/73 9/33/74 1/41/75
f 5/46/76 6/43/77 11/47/78
f 11/47/79 12/42/80 15/49/81
f 31/30/82 34/50/83 15/51/84
f 15/51/85 16/52/86 31/30/87
f 16/53/88 15/49/89 12/42/90
f 6/43/91 12/42/92 11/47/93
f 19/54/94 18/55/95 13/40/96
f 13/40/97 10/56/98 19/54/99
f 13/40/100 2/48/101 10/56/102
f 2/48/103 13/40/104 9/33/105
f 2/48/106 3/57/107 10/56/108
f 28/58/109 30/59/110 2/60/111
f 30/59/112 3/61/113 2/60/114
f 24/15/115 27/62/116 30/23/117
f 29/22/118 21/63/119 24/15/120
f 1/64/121 29/65/122 20/66/123
f 1/64/124 21/67/125 29/65/126
f 12/42/127 4/68/128 1/41/129
f 36/36/130 18/38/131 19/69/132
f 36/36/133 19/69/134 35/70/135
f 24/15/136 43/71/137 37/72/138
f 24/15/139 21/63/140 43/71/141
f 37/72/142 22/13/143 24/15/144
f 44/73/145 22/1/146 37/74/147
f 37/74/148 43/75/149 38/76/150
f 43/77/151 4/78/152 38/79/153
f 38/76/154 44/73/155 37/74/156
f 44/73/157 7/2/158 22/1/159
f 45/80/160 38/81/161 12/42/162
f 38/81/163 4/68/164 12/42/165
f 45/80/166 44/82/167 38/81/168
f 45/80/169 7/44/170 44/82/171
f 12/42/172 7/44/173 45/80/174
f 12/42/175 17/35/176 16/83/177
f 16/52/178 17/31/179 31/30/180
f 39/84/181 46/85/182 24/15/183
f 46/85/184 27/62/185 24/15/186
f 24/15/187 26/19/188 39/84/189
f 40/86/190 46/87/191 39/88/192
f 3/61/193 27/89/194 46/90/195
f 39/88/196 8/11/197 40/86/198
f 11/47/199 3/57/200 40/91/201
f 11/47/202 10/56/203 3/57/204
f 40/91/205 8/45/206 11/47/207
f 19/54/208 11/47/209 15/92/210
f 19/54/211 10/56/212 11/47/213
f 35/70/214 15/51/215 34/50/216
f 15/51/217 35/70/218 19/69/219
f 8/11/220 39/88/221 26/12/222
f 46/87/223 40/86/224 3/93/225
f 17/35/226 12/42/227 9/33/228
f 4/78/229 43/77/230 21/67/231
f 21/67/232 1/64/233 4/78/234
f 3/61/235 30/59/236 27/89/237
f 14/34/238 18/39/239 17/94/240
f 23/6/241 5/27/242 24/28/243
f 2/25/244 20/24/245 28/95/246
f 8/8/247 25/7/248 5/96/249
f 6/5/250 41/4/251 7/97/252
