# File exported by Houdini 19.5.569 (www.sidefx.com)
# 46 points
# 252 vertices
# 84 primitives
# Bounds: [1.44426835, 1.70196891, 1.47363603] to [1.56853378, 3.35574675, 2.15270662]
g 
v 1.56093478 2.492939 2.04532886
v 1.56505454 2.49262142 1.5233773
v 1.56172454 2.99009037 1.53212631
v 1.55794024 2.92464995 2.04200602
v 1.55879605 3.18865609 1.76259065
v 1.55810821 3.18062568 1.85306537
v 1.55761838 3.14151287 1.93608534
v 1.56068957 3.09619641 1.58429468
v 1.55965781 3.16474867 1.67357314
v 1.56471658 1.98103964 1.82625723
v 1.56362331 2.86030555 1.48001349
v 1.56068087 3.34693885 1.49100852
v 1.55521953 3.33640504 2.14510107
v 1.56853378 1.70942235 1.48549843
v 1.56322253 1.71558428 2.14399409
v 1.54695296 3.34698558 1.49175584
v 1.54173326 3.33634496 2.14486337
v 1.54984295 1.71537375 2.14412832
v 1.55479121 1.70929456 1.48565733
v 1.55009615 2.84020162 1.47884202
v 1.44683409 2.49333191 2.04572582
v 1.44468439 2.92475414 2.04174113
v 1.44434512 3.12648749 1.95271015
v 1.44485414 3.18033814 1.85295308
v 1.44488478 3.18833613 1.78695393
v 1.44596946 3.18033814 1.71724224
v 1.44707966 3.12629962 1.61723948
v 1.44887519 2.92466021 1.52841747
v 1.45191443 2.49308896 1.52489769
v 1.54157841 3.3461709 2.15270662
v 1.54953146 1.70643723 2.15197039
v 1.54696357 3.35574675 1.48493719
v 1.54882002 3.06284356 1.4751662
v 1.55178225 2.53632474 1.47363603
v 1.55485559 1.70196891 1.47888124
v 1.44999504 2.7190032 1.52471852
v 1.44426835 3.06729555 2.00428534
v 1.55743349 3.02300596 2.02935243
v 1.44767344 3.07293296 1.5692836
v 1.44449306 3.15352893 1.91506708
v 1.44663966 3.15332174 1.65477562
v 1.55890429 2.73802638 2.04532385
v 1.4443531 3.0131228 2.03106785
v 1.55673826 3.09131956 1.98597443
v 1.55813205 3.07359099 2.00506306
v 1.44826603 3.0131228 1.53900099
vt 0.119330287 0.387648731 0
vt 0.121836513 0.387801558 0
vt 0.12018057 0.393845946 0
vt 0.125142485 0.394156843 0
vt 0.135078266 0.539300859 0
vt 0.1313916 0.539354861 0
vt 0.132421643 0.533203125 0
vt 0.126324475 0.533300877 0
vt 0.340468973 0.376615822 0
vt 0.342354268 0.369675189 0
vt 0.34192124 0.373250693 0
vt 0.339004099 0.378655195 0
vt 0.340456694 0.362514019 0
vt 0.338992596 0.360480517 0
vt 0.341920674 0.365898162 0
vt 0.348100752 0.535478294 0
vt 0.319906592 0.529572129 0
vt 0.348122269 0.529296875 0
vt 0.316926748 0.35546875 0
vt 0.3046875 0.355478555 0
vt 0.319824219 0.535701513 0
vt 0.304703057 0.383695573 0
vt 0.549427032 0.530080676 0
vt 0.544433594 0.523970842 0
vt 0.548034787 0.523925781 0
vt 0.551836371 0.523933291 0
vt 0.554420352 0.530062139 0
vt 0.711175382 0.752101302 0
vt 0.622345388 0.752106488 0
vt 0.622829199 0.75168103 0
vt 0.802758098 0.717058897 0
vt 0.714587986 0.718417585 0
vt 0.714590609 0.717689633 0
vt 0.667276025 0.715332031 0
vt 0.622467458 0.71600908 0
vt 0.622070313 0.715642273 0
vt 0.713378906 0.681839705 0
vt 0.713861942 0.717712164 0
vt 0.728944123 0.700306833 0
vt 0.756827891 0.712001801 0
vt 0.714127302 0.681815386 0
vt 0.756622612 0.683795691 0
vt 0.794138908 0.701216042 0
vt 0.792053342 0.705762148 0
vt 0.789511323 0.686640024 0
vt 0.802977264 0.681410193 0
vt 0.793213725 0.69143641 0
vt 0.794533014 0.69627893 0
vt 0.803724647 0.681461632 0
vt 0.711199045 0.71629113 0
vt 0.711673498 0.715921402 0
vt 0.710642815 0.751676679 0
vt 0.803493142 0.717056632 0
vt 0.77547133 0.680689514 0
vt 0.714118779 0.681069851 0
vt 0.776562035 0.681426227 0
vt 0.78364259 0.684189498 0
vt 0.756641209 0.689909518 0
vt 0.768847823 0.690026522 0
vt 0.779768765 0.69004184 0
vt 0.328068316 0.355668813 0
vt 0.328075469 0.38347891 0
vt 0.673198998 0.852155685 0
vt 0.686452925 0.858232141 0
vt 0.663079739 0.858341038 0
vt 0.686476529 0.852050781 0
vt 0.66308713 0.852205455 0
vt 0.770160675 0.711893797 0
vt 0.780310571 0.711631298 0
vt 0.683740556 0.715605557 0
vt 0.695803404 0.715400159 0
vt 0.335797548 0.381449431 0
vt 0.332862824 0.382900506 0
vt 0.116356179 0.393573552 0
vt 0.115084819 0.38739422 0
vt 0.111977667 0.393354893 0
vt 0.111816406 0.387207031 0
vt 0.658257604 0.85835892 0
vt 0.785653234 0.710899293 0
vt 0.788387835 0.709545493 0
vt 0.789318144 0.708473325 0
vt 0.8027637 0.71779263 0
vt 0.332860857 0.356242061 0
vt 0.336101264 0.357882589 0
vt 0.783773959 0.690347075 0
vt 0.125 0.53946352 0
vt 0.128886312 0.539396703 0
vt 0.802984715 0.680664063 0
vt 0.786745071 0.691288173 0
vt 0.657714844 0.852232814 0
vt 0.54450649 0.530105591 0
vt 0.125494286 0.388031602 0
vn 0.688745439 -0.535936773 -0.488263786
vn 0.68578887 -0.636700869 -0.352570236
vn 0.747086525 -0.542656302 -0.38390857
vn 0.68578887 -0.636700869 -0.352570236
vn 0.749207079 -0.641655385 -0.16421707
vn 0.747086525 -0.542656302 -0.38390857
vn 0.672650814 -0.712753475 0.198804587
vn 0.677437127 -0.628435493 0.382292658
vn 0.747476101 -0.591268539 0.302788675
vn 0.677437127 -0.628435493 0.382292658
vn 0.75415653 -0.411784172 0.51154834
vn 0.747476101 -0.591268539 0.302788675
vn 0.68578887 -0.636700869 -0.352570236
vn 0.683782101 -0.729635239 -0.00863041636
vn 0.668350756 -0.719819725 -0.187528178
vn 0.688745439 -0.535936773 -0.488263786
vn 0.683782101 -0.729635239 -0.00863041636
vn 0.68578887 -0.636700869 -0.352570236
vn 0.677437127 -0.628435493 0.382292658
vn 0.683782101 -0.729635239 -0.00863041636
vn 0.675244093 -0.557486057 0.482964605
vn 0.672650814 -0.712753475 0.198804587
vn 0.683782101 -0.729635239 -0.00863041636
vn 0.677437127 -0.628435493 0.382292658
vn 0.906239867 0.308547825 -0.289011329
vn 0.576785326 0.579531729 0.575727046
vn 0.57881707 0.576088548 -0.57714206
vn 0.697206199 -0.00505697913 0.716852784
vn 0.683782101 -0.729635239 -0.00863041636
vn 0.576785326 0.579531729 0.575727046
vn 0.576785326 0.579531729 0.575727046
vn 0.906239867 0.308547825 -0.289011329
vn 0.905252099 0.298324794 0.302524418
vn 0.683782101 -0.729635239 -0.00863041636
vn 0.57881707 0.576088548 -0.57714206
vn 0.576785326 0.579531729 0.575727046
vn 0.74567318 -0.663724959 0.0586570613
vn 0.668350756 -0.719819725 -0.187528178
vn 0.683782101 -0.729635239 -0.00863041636
vn 0.683782101 -0.729635239 -0.00863041636
vn 0.672650814 -0.712753475 0.198804587
vn 0.74567318 -0.663724959 0.0586570613
vn 0.672650814 -0.712753475 0.198804587
vn 0.747476101 -0.591268539 0.302788675
vn 0.74567318 -0.663724959 0.0586570613
vn 0.999917388 0.00741340918 0.0105072027
vn 0.99960345 -0.0128643746 0.0250453893
vn 0.896648586 -0.30377993 0.322085738
vn 0.56826514 0.57431531 0.58926779
vn 0.896648586 -0.30377993 0.322085738
vn 0.583353043 -0.569462776 0.5791471
vn 0.998201787 0.00451002829 0.0597736686
vn 0.906392694 -0.305034578 -0.29224354
vn 0.999975562 0.0024917277 0.00653580436
vn 0.906392694 -0.305034578 -0.29224354
vn 0.583353043 -0.569462776 0.5791471
vn 0.896648586 -0.30377993 0.322085738
vn 0.999960065 0.00399978738 0.00798578374
vn 0.906239867 0.308547825 -0.289011329
vn 0.583353043 -0.569462776 0.5791471
vn 0.896648586 -0.30377993 0.322085738
vn 0.999975562 0.0024917277 0.00653580436
vn 0.906392694 -0.305034578 -0.29224354
vn 0.896648586 -0.30377993 0.322085738
vn 0.99960345 -0.0128643746 0.0250453893
vn 0.999975562 0.0024917277 0.00653580436
vn 0.906239867 0.308547825 -0.289011329
vn 0.56826514 0.57431531 0.58926779
vn 0.583353043 -0.569462776 0.5791471
vn 0.999960065 0.00399978738 0.00798578374
vn 0.583353043 -0.569462776 0.5791471
vn 0.58036983 -0.576853156 -0.574814141
vn 0.905252099 0.298324794 0.302524418
vn 0.906239867 0.308547825 -0.289011329
vn 0.999960065 0.00399978738 0.00798578374
vn 0.749207079 -0.641655385 -0.16421707
vn 0.56826514 0.57431531 0.58926779
vn 0.747086525 -0.542656302 -0.38390857
vn 0.75415653 -0.411784172 0.51154834
vn 0.566031933 0.585687459 -0.580153346
vn 0.747476101 -0.591268539 0.302788675
vn 0.74567318 -0.663724959 0.0586570613
vn 0.56826514 0.57431531 0.58926779
vn 0.749207079 -0.641655385 -0.16421707
vn 0.74567318 -0.663724959 0.0586570613
vn 0.566031933 0.585687459 -0.580153346
vn 0.56826514 0.57431531 0.58926779
vn 0.74567318 -0.663724959 0.0586570613
vn 0.747476101 -0.591268539 0.302788675
vn 0.566031933 0.585687459 -0.580153346
vn 0.566031933 0.585687459 -0.580153346
vn 0.898547828 0.329961658 -0.289373577
vn 0.56826514 0.57431531 0.58926779
vn 0.999917388 0.00741340918 0.0105072027
vn 0.898547828 0.329961658 -0.289373577
vn 0.999947429 0.00551784411 0.00864567328
vn 0.898547828 0.329961658 -0.289373577
vn 0.999917388 0.00741340918 0.0105072027
vn 0.896391749 0.310062498 0.316769868
vn 0.896391749 0.310062498 0.316769868
vn 0.56826514 0.57431531 0.58926779
vn 0.898547828 0.329961658 -0.289373577
vn 0.737668395 0.00441370532 -0.675148666
vn 0.58036983 -0.576853156 -0.574814141
vn 0.906392694 -0.305034578 -0.29224354
vn 0.58036983 -0.576853156 -0.574814141
vn 0.737668395 0.00441370532 -0.675148666
vn 0.732095182 0.0165733211 -0.68100071
vn 0.58036983 -0.576853156 -0.574814141
vn 0.732095182 0.0165733211 -0.68100071
vn 0.905252099 0.298324794 0.302524418
vn 0.905252099 0.298324794 0.302524418
vn 0.999960065 0.00399978738 0.00798578374
vn 0.58036983 -0.576853156 -0.574814141
vn 0.905252099 0.298324794 0.302524418
vn 0.732095182 0.0165733211 -0.68100071
vn 0.74742645 -0.144735664 0.648386538
vn 0.576785326 0.579531729 0.575727046
vn 0.905252099 0.298324794 0.302524418
vn 0.697206199 -0.00505697913 0.716852784
vn 0.697206199 -0.00505697913 0.716852784
vn 0.74742645 -0.144735664 0.648386538
vn 0.69133091 -0.0333485939 0.7217682
vn 0.683782101 -0.729635239 -0.00863041636
vn 0.697206199 -0.00505697913 0.716852784
vn 0.69133091 -0.0333485939 0.7217682
vn 0.57881707 0.576088548 -0.57714206
vn 0.683782101 -0.729635239 -0.00863041636
vn 0.698775172 -0.04524808 -0.713908911
vn 0.708560824 -0.000856429804 -0.705649137
vn 0.57881707 0.576088548 -0.57714206
vn 0.698775172 -0.04524808 -0.713908911
vn 0.906239867 0.308547825 -0.289011329
vn 0.57881707 0.576088548 -0.57714206
vn 0.708560824 -0.000856429804 -0.705649137
vn 0.708560824 -0.000856429804 -0.705649137
vn 0.698775172 -0.04524808 -0.713908911
vn 0.721864522 -0.0455517061 -0.690533698
vn 0.906239867 0.308547825 -0.289011329
vn 0.708560824 -0.000856429804 -0.705649137
vn 0.56826514 0.57431531 0.58926779
vn 0.56826514 0.57431531 0.58926779
vn 0.708560824 -0.000856429804 -0.705649137
vn 0.721864522 -0.0455517061 -0.690533698
vn 0.998201787 0.00451002829 0.0597736686
vn 0.737668395 0.00441370532 -0.675148666
vn 0.906392694 -0.305034578 -0.29224354
vn 0.737668395 0.00441370532 -0.675148666
vn 0.998201787 0.00451002829 0.0597736686
vn 0.999921083 0.00591545831 0.0110832546
vn 0.683782101 -0.729635239 -0.00863041636
vn 0.685731351 -0.404542148 -0.605077028
vn 0.677665353 -0.203148276 -0.706753492
vn 0.683782101 -0.729635239 -0.00863041636
vn 0.677665353 -0.203148276 -0.706753492
vn 0.698775172 -0.04524808 -0.713908911
vn 0.685731351 -0.404542148 -0.605077028
vn 0.683782101 -0.729635239 -0.00863041636
vn 0.688745439 -0.535936773 -0.488263786
vn 0.29826498 -0.634629428 -0.712939978
vn 0.685731351 -0.404542148 -0.605077028
vn 0.688745439 -0.535936773 -0.488263786
vn 0.685731351 -0.404542148 -0.605077028
vn 0.758772194 -0.217936426 -0.613814712
vn 0.677665353 -0.203148276 -0.706753492
vn 0.677665353 -0.203148276 -0.706753492
vn 0.721864522 -0.0455517061 -0.690533698
vn 0.698775172 -0.04524808 -0.713908911
vn 0.29826498 -0.634629428 -0.712939978
vn 0.688745439 -0.535936773 -0.488263786
vn 0.747086525 -0.542656302 -0.38390857
vn 0.758772194 -0.217936426 -0.613814712
vn 0.685731351 -0.404542148 -0.605077028
vn 0.29826498 -0.634629428 -0.712939978
vn 0.758772194 -0.217936426 -0.613814712
vn 0.56826514 0.57431531 0.58926779
vn 0.721864522 -0.0455517061 -0.690533698
vn 0.997065723 -0.0425077975 -0.0636646971
vn 0.56826514 0.57431531 0.58926779
vn 0.758772194 -0.217936426 -0.613814712
vn 0.56826514 0.57431531 0.58926779
vn 0.997065723 -0.0425077975 -0.0636646971
vn 0.747086525 -0.542656302 -0.38390857
vn 0.997065723 -0.0425077975 -0.0636646971
vn 0.29826498 -0.634629428 -0.712939978
vn 0.747086525 -0.542656302 -0.38390857
vn 0.997065723 -0.0425077975 -0.0636646971
vn 0.758772194 -0.217936426 -0.613814712
vn 0.29826498 -0.634629428 -0.712939978
vn 0.56826514 0.57431531 0.58926779
vn 0.896391749 0.310062498 0.316769868
vn 0.896648586 -0.30377993 0.322085738
vn 0.896391749 0.310062498 0.316769868
vn 0.999917388 0.00741340918 0.0105072027
vn 0.896648586 -0.30377993 0.322085738
vn 0.666462004 -0.225376576 0.710657239
vn 0.683782101 -0.729635239 -0.00863041636
vn 0.69133091 -0.0333485939 0.7217682
vn 0.677145422 -0.398650706 0.618507564
vn 0.683782101 -0.729635239 -0.00863041636
vn 0.666462004 -0.225376576 0.710657239
vn 0.683782101 -0.729635239 -0.00863041636
vn 0.677145422 -0.398650706 0.618507564
vn 0.675244093 -0.557486057 0.482964605
vn 0.74742645 -0.144735664 0.648386538
vn 0.666462004 -0.225376576 0.710657239
vn 0.69133091 -0.0333485939 0.7217682
vn 0.75415653 -0.411784172 0.51154834
vn 0.666462004 -0.225376576 0.710657239
vn 0.74742645 -0.144735664 0.648386538
vn 0.677145422 -0.398650706 0.618507564
vn 0.75415653 -0.411784172 0.51154834
vn 0.675244093 -0.557486057 0.482964605
vn 0.566031933 0.585687459 -0.580153346
vn 0.75415653 -0.411784172 0.51154834
vn 0.74742645 -0.144735664 0.648386538
vn 0.566031933 0.585687459 -0.580153346
vn 0.74742645 -0.144735664 0.648386538
vn 0.732095182 0.0165733211 -0.68100071
vn 0.737668395 0.00441370532 -0.675148666
vn 0.566031933 0.585687459 -0.580153346
vn 0.732095182 0.0165733211 -0.68100071
vn 0.737668395 0.00441370532 -0.675148666
vn 0.898547828 0.329961658 -0.289373577
vn 0.566031933 0.585687459 -0.580153346
vn 0.999921083 0.00591545831 0.0110832546
vn 0.898547828 0.329961658 -0.289373577
vn 0.737668395 0.00441370532 -0.675148666
vn 0.898547828 0.329961658 -0.289373577
vn 0.999921083 0.00591545831 0.0110832546
vn 0.999947429 0.00551784411 0.00864567328
vn 0.666462004 -0.225376576 0.710657239
vn 0.75415653 -0.411784172 0.51154834
vn 0.677145422 -0.398650706 0.618507564
vn 0.721864522 -0.0455517061 -0.690533698
vn 0.677665353 -0.203148276 -0.706753492
vn 0.758772194 -0.217936426 -0.613814712
vn 0.74742645 -0.144735664 0.648386538
vn 0.697206199 -0.00505697913 0.716852784
vn 0.905252099 0.298324794 0.302524418
vn 0.583353043 -0.569462776 0.5791471
vn 0.906392694 -0.305034578 -0.29224354
vn 0.58036983 -0.576853156 -0.574814141
vn 0.668350756 -0.719819725 -0.187528178
vn 0.74567318 -0.663724959 0.0586570613
vn 0.749207079 -0.641655385 -0.16421707
vn 0.75415653 -0.411784172 0.51154834
vn 0.677437127 -0.628435493 0.382292658
vn 0.675244093 -0.557486057 0.482964605
vn 0.749207079 -0.641655385 -0.16421707
vn 0.68578887 -0.636700869 -0.352570236
vn 0.668350756 -0.719819725 -0.187528178
g 
f 23/1/1 40/2/2 7/3/3
f 40/2/4 6/4/5 7/3/6
f 26/5/7 41/6/8 9/7/9
f 41/6/10 8/8/11 9/7/12
f 40/9/13 25/10/14 24/11/15
f 23/12/16 25/10/17 40/9/18
f 41/13/19 25/10/20 27/14/21
f 26/15/22 25/10/23 41/13/24
f 1/16/25 29/17/26 21/18/27
f 36/19/28 25/10/29 29/20/30
f 29/17/31 1/16/32 2/21/33
f 25/10/34 21/22/35 29/20/36
f 5/23/37 24/24/38 25/25/39
f 25/25/40 26/26/41 5/23/42
f 26/26/43 9/27/44 5/23/45
f 30/28/46 31/29/47 18/30/48
f 13/31/49 18/32/50 15/33/51
f 34/34/52 19/35/53 35/36/54
f 19/37/55 15/33/56 18/38/57
f 10/39/58 1/40/59 15/33/60
f 18/30/61 35/36/62 19/35/63
f 18/30/64 31/29/65 35/36/66
f 1/40/67 13/31/68 15/33/69
f 10/39/70 15/33/71 14/41/72
f 2/42/73 1/40/74 10/39/75
f 6/43/76 13/31/77 7/44/78
f 8/45/79 12/46/80 9/47/81
f 5/48/82 13/31/83 6/43/84
f 5/48/85 12/46/86 13/31/87
f 5/48/88 9/47/89 12/46/90
f 12/46/91 16/49/92 13/31/93
f 30/28/94 16/50/95 32/51/96
f 16/50/97 30/28/98 17/52/99
f 17/53/100 13/31/101 16/49/102
f 20/54/103 14/41/104 19/55/105
f 14/41/106 20/54/107 11/56/108
f 14/41/109 11/56/110 2/42/111
f 2/42/112 10/39/113 14/41/114
f 2/42/115 11/56/116 3/57/117
f 29/58/118 2/42/119 36/59/120
f 36/59/121 3/57/122 28/60/123
f 25/10/124 36/19/125 28/61/126
f 21/22/127 25/10/128 22/62/129
f 42/63/130 21/64/131 22/65/132
f 1/66/133 21/64/134 42/63/135
f 42/63/136 22/65/137 4/67/138
f 1/40/139 42/68/140 13/31/141
f 13/31/142 42/68/143 4/69/144
f 34/34/145 20/70/146 19/35/147
f 20/70/148 34/34/149 33/71/150
f 25/10/151 37/72/152 43/73/153
f 25/10/154 43/73/155 22/62/156
f 37/72/157 25/10/158 23/12/159
f 44/74/160 37/75/161 23/1/162
f 37/75/163 38/76/164 43/77/165
f 43/78/166 4/67/167 22/65/168
f 44/74/169 23/1/170 7/3/171
f 38/76/172 37/75/173 44/74/174
f 38/79/175 13/31/176 4/69/177
f 45/80/178 13/31/179 38/79/180
f 13/31/181 45/80/182 7/44/183
f 45/80/184 44/81/185 7/44/186
f 45/80/187 38/79/188 44/81/189
f 13/31/190 17/82/191 18/32/192
f 17/52/193 30/28/194 18/30/195
f 46/83/196 25/10/197 28/61/198
f 39/84/199 25/10/200 46/83/201
f 25/10/202 39/84/203 27/14/204
f 3/57/205 46/85/206 28/60/207
f 8/45/208 46/85/209 3/57/210
f 39/86/211 8/8/212 27/87/213
f 12/46/214 8/45/215 3/57/216
f 12/46/217 3/57/218 11/56/219
f 20/54/220 12/46/221 11/56/222
f 20/54/223 16/88/224 12/46/225
f 33/71/226 16/50/227 20/70/228
f 16/50/229 33/71/230 32/51/231
f 46/85/232 8/45/233 39/89/234
f 4/67/235 43/78/236 38/90/237
f 3/57/238 36/59/239 2/42/240
f 15/33/241 19/37/242 14/41/243
f 24/24/244 5/23/245 6/91/246
f 8/8/247 41/6/248 27/87/249
f 6/4/250 40/2/251 24/92/252
